<?xml version="1.0" standalone="no"?>
<!DOCTYPE svg PUBLIC "-//W3C//DTD SVG 20010904//EN"
 "http://www.w3.org/TR/2001/REC-SVG-20010904/DTD/svg10.dtd">
<svg version="1.0" xmlns="http://www.w3.org/2000/svg"
 width="513.000000pt" height="674.000000pt" viewBox="0 0 513.000000 674.000000"
 preserveAspectRatio="xMidYMid meet">

<g transform="translate(0.000000,674.000000) scale(0.100000,-0.100000)"
fill="#000000" stroke="none">
<path d="M3598 6493 c-7 -16 -13 -29 -14 -31 -1 -2 -12 6 -24 18 -28 28 -44
21 -48 -20 -2 -20 -12 -40 -24 -49 -18 -12 -20 -21 -15 -73 3 -39 14 -72 29
-96 14 -20 28 -45 31 -56 13 -35 27 -577 17 -673 -18 -177 -130 -519 -175
-537 -19 -7 -19 -35 -1 -59 13 -17 14 -16 19 3 9 37 113 21 134 -20 11 -22 13
-23 13 -5 0 11 7 30 15 42 9 13 11 24 6 28 -13 7 -4 32 27 73 44 58 93 265 92
388 -1 49 -1 256 -1 460 -1 361 0 371 21 407 26 43 37 135 21 165 -8 15 -21
22 -41 22 -20 0 -31 6 -35 20 -9 29 -33 25 -47 -7z m37 -133 c8 0 20 18 26 40
14 46 26 51 35 15 8 -33 -2 -70 -29 -107 -18 -24 -22 -42 -21 -96 0 -37 2
-249 3 -472 2 -379 1 -409 -18 -475 -11 -38 -26 -94 -34 -123 -9 -29 -30 -75
-47 -102 -17 -27 -29 -54 -25 -60 4 -6 -10 -10 -39 -10 -25 0 -47 4 -50 9 -4
5 3 31 15 58 100 231 147 465 134 663 -4 58 -6 164 -6 235 1 189 -11 275 -43
318 -14 19 -26 47 -26 63 0 29 2 30 44 29 41 -2 44 0 50 28 3 16 7 41 8 56 1
14 3 5 5 -21 3 -33 9 -48 18 -48z m-88 48 c-3 -8 -6 -5 -6 6 -1 11 2 17 5 13
3 -3 4 -12 1 -19z"/>
<path d="M2653 6019 c-31 -15 -45 -31 -57 -60 -9 -22 -15 -43 -15 -47 6 -37
-24 -41 -135 -17 -75 16 -86 14 -66 -10 11 -13 10 -14 -3 -10 -8 4 -18 2 -22
-4 -4 -7 12 -11 49 -11 30 0 76 -7 101 -16 34 -11 50 -12 59 -4 10 8 18 4 30
-15 14 -22 22 -25 49 -20 18 3 53 -1 80 -9 26 -8 47 -11 47 -7 0 15 -39 43
-86 60 -111 42 -91 142 33 170 37 8 49 5 100 -21 l58 -29 -39 36 c-34 31 -46
35 -90 35 -30 -1 -68 -9 -93 -21z"/>
<path d="M2880 5913 c4 -16 13 -41 20 -58 13 -34 47 -159 59 -220 12 -57 48
-186 62 -221 7 -16 14 -47 15 -69 4 -42 36 -226 59 -335 8 -36 16 -76 19 -90
2 -14 7 -43 11 -65 3 -22 10 -49 15 -60 5 -11 19 -56 30 -100 65 -239 74 -311
43 -336 -23 -20 -279 -22 -299 -2 -11 12 -18 11 -45 -2 -17 -9 -76 -21 -133
-26 -281 -25 -469 -55 -675 -107 -39 -10 -96 -20 -127 -21 -76 -3 -167 -30
-321 -94 -119 -50 -134 -54 -148 -41 -13 14 -19 34 -16 56 1 13 -40 123 -56
147 -9 14 -26 73 -38 131 -13 59 -34 136 -48 171 -44 114 -87 272 -97 358 -5
46 -21 123 -34 170 -13 47 -27 102 -30 122 -7 41 -46 87 -46 54 0 -10 4 -32 9
-49 28 -92 63 -249 71 -317 9 -80 32 -163 102 -373 41 -125 49 -192 14 -126
-10 19 -41 61 -69 93 -27 32 -55 74 -62 95 -11 31 -19 38 -46 42 -31 5 -37 13
-106 145 -40 77 -73 149 -73 161 0 12 -16 42 -36 68 -38 50 -73 122 -109 226
-13 36 -58 137 -100 225 -75 155 -92 210 -116 360 -5 33 -11 66 -14 73 -6 17
-35 15 -35 -2 0 -23 -20 -29 -39 -12 -23 21 -27 20 -35 -6 l-7 -23 -11 23
c-20 40 -43 23 -46 -36 -2 -28 -7 -52 -13 -52 -15 0 -10 -31 17 -102 15 -40
32 -68 40 -68 19 0 18 6 -8 40 -20 28 -21 30 -4 49 15 16 16 25 7 58 -13 46
-13 53 -2 53 5 0 11 -9 14 -21 8 -30 27 -14 27 24 1 30 1 31 15 13 8 -11 15
-28 15 -38 0 -10 7 -18 15 -18 11 0 15 12 15 45 0 46 12 59 25 28 4 -10 10
-65 14 -123 7 -93 12 -113 44 -177 20 -40 37 -80 37 -89 0 -10 11 -32 25 -50
14 -18 25 -44 25 -58 0 -16 6 -26 14 -26 17 0 30 -30 13 -30 -7 -1 -1 -10 12
-20 13 -11 21 -26 18 -34 -6 -14 75 -187 119 -257 42 -67 184 -346 184 -363 0
-17 -41 -32 -65 -23 -8 4 -24 25 -36 49 -12 24 -33 58 -47 77 -45 60 -212 414
-212 449 0 6 -3 12 -7 14 -10 4 -44 74 -73 148 -12 30 -32 78 -46 108 -13 29
-24 55 -24 59 0 20 -55 123 -66 123 -8 0 -14 -3 -14 -6 0 -4 22 -53 50 -110
27 -56 66 -142 85 -191 50 -121 77 -180 196 -431 33 -68 59 -125 59 -127 0 -2
12 -21 26 -42 14 -21 37 -59 50 -85 24 -48 24 -48 4 -65 -11 -10 -20 -25 -20
-35 0 -10 32 -52 70 -94 39 -42 77 -90 85 -107 8 -18 29 -57 47 -87 18 -30 51
-99 74 -152 24 -54 56 -117 73 -142 17 -25 31 -50 31 -56 0 -7 14 -33 32 -59
135 -196 164 -249 205 -366 13 -38 35 -112 49 -163 13 -51 33 -117 43 -147 10
-29 25 -86 32 -127 7 -40 21 -84 31 -97 10 -13 18 -32 18 -43 0 -10 18 -93 40
-184 25 -103 39 -178 35 -197 -3 -22 0 -38 13 -53 20 -24 69 -39 85 -26 7 5
75 2 167 -9 219 -25 295 -29 556 -30 l232 -1 6 -46 c3 -24 6 -72 6 -105 l0
-60 -232 6 c-333 9 -497 38 -553 98 -35 36 -75 59 -104 59 -11 0 -33 11 -49
24 -20 17 -36 23 -53 20 -48 -11 -50 -13 -40 -31 15 -27 71 -203 77 -243 3
-19 9 -39 14 -45 11 -15 32 -134 25 -144 -6 -10 26 -71 38 -71 4 0 7 -8 7 -19
0 -10 7 -24 15 -31 8 -7 15 -24 15 -37 0 -19 4 -24 16 -19 10 4 29 -7 54 -32
21 -20 57 -52 80 -71 l42 -34 -7 -101 c-4 -56 -8 -139 -10 -186 -2 -47 -8 -98
-15 -114 -13 -35 3 -128 26 -146 18 -16 18 -34 -1 -50 -21 -17 -59 9 -84 58
-11 21 -26 44 -35 51 -19 16 -114 151 -210 301 -41 63 -83 126 -93 140 -28 37
-113 187 -113 200 0 6 -11 15 -23 19 -13 5 -30 23 -36 40 -11 26 -11 34 7 63
11 18 23 55 26 81 7 47 7 48 -43 97 -33 32 -60 50 -75 50 -14 0 -52 16 -85 36
-56 34 -66 36 -124 32 -55 -3 -71 -9 -116 -42 -63 -47 -107 -110 -197 -284
-59 -115 -69 -142 -72 -197 -4 -63 -4 -64 34 -99 50 -46 89 -54 140 -28 60 31
77 55 76 106 -2 52 11 92 40 124 29 30 43 28 67 -12 26 -42 71 -61 98 -41 10
8 32 15 48 15 35 0 71 -40 99 -109 9 -25 29 -61 44 -80 15 -20 32 -43 37 -53
6 -9 31 -47 56 -85 26 -37 56 -86 67 -109 11 -22 28 -47 38 -55 9 -8 32 -37
51 -66 18 -28 38 -55 44 -59 6 -3 28 -43 49 -88 20 -44 49 -92 64 -105 14 -14
26 -32 26 -41 0 -22 81 -130 117 -156 35 -26 63 -36 63 -24 0 6 17 10 38 10
21 0 47 7 58 15 10 8 26 15 35 15 23 0 97 83 104 117 4 15 10 39 15 53 5 14
12 44 15 68 5 33 13 45 31 52 23 9 26 14 29 55 0 11 4 56 9 100 25 272 38 325
77 325 19 0 19 -1 5 -22 -19 -26 -20 -38 -5 -38 13 0 39 25 39 38 0 25 36 31
200 36 96 3 200 9 230 15 30 5 97 14 149 21 51 6 105 16 119 21 44 17 53 -4
64 -153 5 -73 8 -170 5 -214 -7 -116 -2 -132 49 -163 30 -18 48 -38 59 -66 35
-86 49 -107 84 -126 20 -10 48 -29 63 -40 24 -20 31 -21 74 -10 26 7 56 19 68
27 20 14 20 14 -9 16 -17 0 -40 0 -53 -1 -26 -2 -119 52 -142 84 -21 28 -39
72 -33 79 4 3 21 6 38 6 18 0 59 14 91 31 52 28 62 30 89 20 46 -16 82 -14
104 8 28 28 53 124 57 214 2 43 7 84 12 90 5 7 14 51 20 99 6 49 23 121 37
160 14 40 32 96 40 123 7 28 42 111 76 185 75 164 119 290 119 345 1 54 18
128 33 137 20 13 82 9 121 -7 38 -16 45 -29 21 -39 -8 -3 -15 -16 -15 -29 0
-24 -52 -140 -76 -167 -7 -8 -14 -26 -17 -40 -2 -14 -11 -42 -20 -64 -9 -21
-17 -42 -17 -47 0 -12 -45 -148 -63 -189 -38 -87 -120 -341 -115 -357 1 -4 -5
-19 -14 -33 -10 -16 -19 -59 -23 -120 -7 -100 -12 -142 -21 -175 -14 -48 -79
-182 -98 -202 -12 -12 -25 -27 -31 -33 -5 -7 -28 -27 -50 -46 l-40 -34 34 12
c45 15 155 126 186 189 30 58 80 208 100 299 8 36 21 97 30 135 8 39 13 75 11
81 -3 6 0 29 5 50 6 22 11 46 13 54 1 9 5 20 8 25 3 6 9 26 13 45 4 19 11 40
15 45 4 6 13 35 20 65 7 30 16 64 21 75 17 41 39 111 39 127 0 15 42 110 103
236 18 38 59 83 85 94 4 1 21 20 36 41 16 20 33 37 38 37 6 0 31 -15 57 -34
25 -18 57 -37 69 -41 38 -11 90 3 108 30 20 31 23 127 4 150 -27 33 -213 110
-375 154 -75 21 -185 32 -207 20 -29 -16 -67 -61 -68 -81 0 -9 -15 -35 -34
-57 -26 -31 -36 -54 -41 -94 -12 -95 -7 -109 50 -129 58 -21 75 -40 75 -82 0
-42 -45 -179 -80 -246 -49 -92 -108 -227 -115 -262 -4 -18 -22 -78 -40 -133
-19 -55 -41 -149 -50 -210 -14 -98 -71 -284 -94 -308 -18 -18 -40 6 -47 51 -4
28 -16 57 -29 72 -13 14 -28 45 -35 70 -6 25 -18 65 -25 90 -8 25 -21 74 -30
110 -10 36 -28 100 -42 143 -22 68 -23 80 -11 95 21 26 35 62 49 122 6 30 16
69 21 85 5 17 11 105 15 196 4 128 2 187 -11 260 -9 52 -15 130 -14 174 2 106
-11 206 -30 228 -8 9 -10 17 -5 17 20 0 21 38 1 59 -10 12 -14 21 -8 21 5 0
10 5 10 10 0 6 -7 10 -15 10 -8 0 -15 5 -15 10 0 6 6 10 14 10 21 0 30 19 16
35 -8 10 -8 15 0 20 8 5 6 13 -6 26 -15 17 -15 20 0 43 15 23 14 28 -4 71 -11
26 -20 51 -20 57 0 5 -7 25 -16 44 -9 19 -14 46 -11 61 3 15 -6 54 -20 92 -13
36 -29 80 -35 96 -6 17 -15 35 -19 41 -5 6 -10 23 -11 37 -2 22 -5 24 -21 15
-11 -6 -16 -13 -11 -17 5 -3 9 -19 8 -36 0 -16 5 -37 13 -47 10 -11 11 -18 3
-23 -8 -5 -7 -11 2 -22 7 -9 12 -18 11 -20 -9 -11 0 -31 15 -35 11 -3 23 -25
34 -64 20 -72 33 -208 17 -181 -15 25 -28 21 -26 -10 2 -30 18 -25 -308 -91
-331 -66 -365 -68 -365 -25 0 31 -46 123 -115 228 -115 175 -144 244 -164 387
-15 106 -6 119 89 123 25 1 61 9 80 17 41 19 175 41 380 63 80 9 158 18 173
21 36 6 65 -10 79 -44 11 -27 11 -26 19 18 6 38 4 48 -12 62 -12 10 -15 19 -9
23 18 11 11 47 -17 84 -16 20 -27 39 -26 43 1 3 -4 12 -12 18 -20 17 -19 30 3
30 14 0 24 17 40 68 33 107 59 210 77 307 9 50 23 106 30 125 8 19 19 68 25
108 6 40 11 78 13 85 1 7 -22 14 -60 18 -76 9 -83 13 -83 47 0 25 -1 25 -15 6
-8 -10 -15 -28 -15 -39 0 -18 -37 -174 -69 -292 -7 -24 -15 -43 -20 -43 -11 0
-135 493 -162 647 -6 32 -17 94 -24 138 -18 101 -51 244 -66 281 -6 16 -15 49
-19 74 -15 77 -30 130 -44 153 -8 12 -19 40 -26 62 -15 51 -31 85 -41 85 -4 0
-4 -12 1 -27z m568 -1129 c13 -4 22 -14 22 -26 0 -10 -3 -17 -7 -15 -5 3 -13
-1 -20 -8 -10 -10 -9 -16 3 -26 12 -10 12 -14 2 -21 -10 -6 -10 -10 2 -18 11
-7 7 -10 -18 -10 -33 0 -33 0 -25 38 4 20 8 49 8 65 0 30 0 29 33 21z m-4
-174 c7 -7 -26 -165 -38 -177 -7 -7 -55 13 -85 36 l-24 19 17 63 c24 85 28 89
79 77 23 -5 46 -13 51 -18z m-2334 -61 c16 -2 60 -38 60 -50 0 -4 -21 -19 -46
-34 l-46 -27 -25 24 c-37 35 -45 55 -32 79 9 17 17 20 42 15 18 -4 39 -7 47
-7z m90 -104 c0 -8 -4 -15 -10 -15 -5 0 -10 7 -10 15 0 8 5 15 10 15 6 0 10
-7 10 -15z m2160 -66 c0 -5 5 -7 10 -4 6 3 10 -1 10 -9 0 -9 -4 -16 -10 -16
-5 0 -10 -12 -10 -27 0 -16 -7 -40 -14 -55 -9 -16 -11 -30 -5 -33 15 -10 10
-45 -6 -52 -9 -3 -25 3 -36 13 -17 15 -20 26 -15 56 3 20 2 40 -4 43 -20 12
-10 45 16 55 14 6 30 8 35 4 5 -3 9 4 9 15 0 12 5 21 10 21 6 0 10 -5 10 -11z
m-306 -68 c3 -5 -43 -34 -103 -65 -107 -55 -250 -135 -303 -170 -26 -17 -28
-17 -28 -1 0 22 150 176 209 216 41 27 52 29 132 29 48 0 90 -4 93 -9z m-274
-6 c0 -2 -30 -34 -67 -70 -65 -64 -67 -65 -120 -65 -50 0 -204 -43 -211 -59
-13 -31 -20 -31 -108 -2 -49 16 -102 32 -119 35 -43 9 -85 27 -85 36 0 20 338
102 490 119 77 8 220 12 220 6z m406 -9 c3 -8 16 -17 29 -20 27 -7 38 -41 22
-67 -9 -15 -19 -18 -41 -13 -19 4 -26 3 -22 -5 4 -6 3 -19 -2 -28 -12 -21 5
-42 28 -35 13 3 13 2 1 -7 -18 -12 -51 3 -51 24 0 8 -4 15 -10 15 -16 0 -12
30 5 36 24 10 17 22 -9 17 -17 -4 -25 0 -29 16 -6 26 -37 18 -37 -10 0 -15 -8
-18 -50 -17 -27 1 -50 5 -50 10 0 11 92 68 111 68 8 0 19 4 25 9 9 9 36 18 62
20 7 0 15 -5 18 -13z m-1843 -95 c35 -63 34 -79 -8 -120 -40 -39 -46 -37 -84
32 -30 54 -27 81 12 111 17 14 37 26 43 26 6 0 23 -22 37 -49z m1617 -10 c0
-5 -11 -16 -24 -25 -28 -18 -46 -5 -26 19 14 16 50 20 50 6z m114 -26 c3 -8
18 -15 33 -15 21 -1 24 -3 13 -9 -26 -15 -75 -21 -90 -11 -12 8 -12 12 5 29
24 24 31 25 39 6z m188 -39 c-2 -5 -9 -1 -14 8 -5 9 -6 21 -2 28 9 14 25 -22
16 -36z m-382 21 c0 -7 -5 -18 -12 -25 -7 -7 -18 -12 -25 -12 -17 0 -17 37 0
43 22 10 37 7 37 -6z m125 -25 c1 -16 -3 -21 -12 -17 -8 3 -17 5 -19 5 -2 0
-4 9 -4 21 0 29 33 21 35 -9z m-960 -2 c33 -6 87 -23 120 -39 33 -16 82 -36
108 -46 26 -10 50 -22 53 -27 7 -11 -339 11 -591 39 -27 3 -67 6 -87 7 -93 5
-25 33 95 40 50 3 85 10 95 19 30 27 88 29 207 7z m538 -16 c3 -3 -4 -21 -15
-40 -19 -32 -22 -34 -61 -28 -74 10 -75 14 -12 45 60 29 77 34 88 23z m377 -4
c0 -5 -7 -10 -16 -10 -8 0 -12 5 -9 10 3 6 10 10 16 10 5 0 9 -4 9 -10z
m-1550 -55 c0 -6 -5 -16 -11 -22 -8 -8 -3 -15 19 -27 20 -10 35 -29 43 -53 17
-51 21 -93 9 -93 -6 0 -10 6 -10 14 0 8 -11 27 -24 43 -13 15 -27 43 -31 61
-4 18 -12 35 -19 38 -13 5 -20 59 -10 76 8 12 34 -17 34 -37z m1672 -7 c-6 -6
-16 -7 -22 -3 -9 6 -9 9 1 16 17 10 34 0 21 -13z m258 -8 c0 -5 -7 -10 -15
-10 -8 0 -15 5 -15 10 0 6 7 10 15 10 8 0 15 -4 15 -10z m-1984 -27 c0 -16 4
-37 8 -48 6 -15 1 -13 -18 8 -30 33 -34 67 -8 67 12 0 17 -8 18 -27z m1895 6
c11 -5 17 -14 14 -20 -4 -5 -14 -5 -26 2 -15 8 -24 7 -35 -2 -13 -11 -112 -15
-121 -5 -5 4 105 34 130 35 10 1 27 -4 38 -10z m-1515 -13 c3 -8 12 -12 19 -9
8 2 28 -2 44 -10 24 -12 32 -12 40 -3 6 7 7 17 3 21 -4 5 2 5 13 0 11 -4 31
-8 44 -9 13 -1 26 -7 29 -15 3 -10 -2 -11 -18 -6 -18 6 -21 4 -14 -6 15 -23
32 -143 22 -155 -4 -7 -26 -12 -47 -12 -35 -1 -39 2 -45 29 -6 30 -26 41 -26
14 0 -8 -7 -15 -15 -15 -11 0 -14 -7 -9 -25 7 -28 -2 -31 -30 -10 -11 8 -28
13 -38 9 -13 -4 -16 -1 -12 10 3 9 1 16 -5 16 -16 0 -53 78 -41 85 6 3 10 15
10 26 0 23 13 25 30 4 7 -8 19 -15 26 -15 20 0 6 27 -17 33 -10 3 -19 11 -19
18 0 10 3 10 12 1 19 -19 31 -14 26 13 -6 27 9 35 18 11z m959 -44 c-6 -15 -8
-15 -15 3 -4 11 -3 29 4 40 10 19 11 19 14 -3 2 -13 0 -31 -3 -40z m-628 11
c10 -13 16 -15 19 -5 9 20 72 15 86 -8 7 -11 16 -20 21 -20 4 0 6 4 2 9 -10
17 10 20 90 10 89 -11 109 -22 80 -42 -10 -8 -15 -19 -11 -25 3 -6 2 -13 -3
-16 -5 -3 -7 -15 -4 -26 3 -11 1 -20 -5 -20 -6 0 -11 8 -11 18 -1 35 -14 82
-21 77 -5 -3 -6 -20 -3 -38 6 -37 -21 -112 -36 -102 -6 3 -8 12 -5 19 4 9 -8
15 -38 19 -44 6 -61 -4 -51 -30 3 -8 -2 -13 -12 -13 -11 0 -15 6 -11 18 8 24
-9 46 -29 39 -9 -4 -13 -11 -10 -17 10 -16 -22 -12 -39 5 -19 20 -23 19 -30
-7 -7 -27 -26 -13 -29 21 -1 11 -5 21 -10 21 -15 0 -58 51 -54 64 2 6 0 21 -4
33 -8 23 -8 23 85 31 10 1 25 -6 33 -15z m950 1 c-3 -3 -12 -4 -19 -1 -8 3 -5
6 6 6 11 1 17 -2 13 -5z m-519 -41 c-6 -21 -10 -50 -9 -65 0 -21 -5 -28 -19
-28 -14 0 -20 7 -20 23 0 12 -9 30 -20 40 -25 21 -27 52 -2 42 20 -8 21 -8 45
-6 9 0 17 8 17 16 0 8 4 15 9 15 5 0 5 -16 -1 -37z m71 -32 c-14 -4 -30 19
-22 33 3 5 12 1 20 -10 10 -13 10 -20 2 -23z m-156 -33 c6 -38 2 -44 -19 -30
-9 5 -12 53 -5 82 3 14 19 -21 24 -52z m-703 -82 c0 -3 -4 -8 -10 -11 -5 -3
-10 -1 -10 4 0 6 5 11 10 11 6 0 10 -2 10 -4z m392 -11 c0 -5 -5 -11 -11 -13
-6 -2 -11 4 -11 13 0 9 5 15 11 13 6 -2 11 -8 11 -13z m409 -21 c6 -7 19 -55
30 -106 35 -172 43 -190 187 -428 53 -87 98 -199 85 -211 -5 -4 -44 -9 -88
-12 -88 -6 -118 -10 -250 -33 -49 -9 -126 -20 -170 -24 -44 -5 -120 -13 -170
-19 -49 -5 -142 -13 -206 -16 l-115 -7 -17 26 c-21 31 -47 34 -47 5 0 -11 -5
-19 -12 -17 -16 6 -38 107 -25 115 5 3 3 10 -7 15 -18 10 -21 35 -5 40 6 2 1
15 -11 31 -12 15 -19 34 -16 43 3 8 -2 30 -11 47 -9 18 -18 43 -19 57 -1 14
-11 46 -23 72 -11 26 -21 56 -21 67 0 10 -8 39 -19 63 -25 59 -42 144 -35 174
8 31 45 40 202 48 67 4 157 11 200 16 42 6 97 10 122 11 25 1 60 7 77 15 18 8
81 19 139 24 59 5 109 12 112 15 10 10 102 2 113 -11z m-581 -4 c0 -5 -3 -10
-7 -10 -5 0 -18 -3 -30 -6 -13 -4 -23 -2 -23 4 0 10 19 18 48 21 6 0 12 -3 12
-9z m-300 -30 c0 -5 -12 -10 -26 -10 -14 0 -23 4 -19 10 3 6 15 10 26 10 10 0
19 -4 19 -10z m1940 -665 c0 -3 -8 -14 -17 -25 -13 -14 -19 -16 -25 -7 -15 23
-8 37 17 37 14 0 25 -2 25 -5z m-40 -64 c0 -5 -6 -12 -12 -14 -8 -3 -6 -6 5
-6 27 -1 20 -28 -9 -35 -18 -5 -33 -1 -47 11 -14 13 -21 15 -24 6 -5 -14 -53
-18 -53 -5 0 10 50 32 71 32 10 0 21 5 24 10 8 13 45 13 45 1z m-730 -20 c0
-13 -27 -21 -71 -21 -21 0 -39 -5 -39 -10 0 -6 -19 -9 -42 -8 -49 2 -139 -8
-183 -20 -16 -4 -43 -5 -60 -2 l-30 7 40 11 c22 6 90 18 150 26 61 9 121 17
135 20 50 7 100 6 100 -3z m505 -28 c-15 -37 -16 -50 -3 -51 7 -1 27 -4 43 -7
22 -5 26 -4 15 4 -8 5 -12 12 -9 16 10 10 159 14 159 4 0 -5 -5 -9 -11 -9 -11
0 -38 -29 -39 -41 0 -4 20 -4 44 -2 38 5 44 3 49 -16 3 -15 12 -21 24 -19 11
2 17 -2 15 -11 -1 -7 3 -20 10 -28 10 -12 9 -17 -2 -23 -8 -5 -24 -16 -35 -24
-18 -14 -18 -15 -3 -16 16 0 19 -20 8 -50 -1 -3 -2 -13 -1 -22 1 -10 -4 -18
-13 -18 -8 0 -22 -7 -30 -15 -14 -14 -16 -13 -22 10 -3 14 -11 25 -16 25 -5 0
-8 5 -6 11 2 6 6 9 8 8 11 -5 50 23 50 36 0 11 -14 14 -60 14 -33 -1 -60 -5
-60 -10 0 -5 -20 -9 -45 -9 -28 0 -48 -5 -51 -13 -2 -7 -16 -14 -30 -15 -22
-2 -24 1 -19 21 4 12 13 32 21 44 18 28 18 33 0 33 -8 0 -21 -12 -28 -27 -12
-25 -19 -28 -66 -29 -63 -1 -87 -18 -58 -40 12 -8 22 -10 26 -5 3 6 11 6 20 1
12 -7 11 -10 -4 -16 -10 -4 -27 -7 -39 -8 -14 -1 -22 -8 -21 -19 1 -9 -5 -17
-13 -17 -12 0 -14 8 -9 35 4 21 2 42 -6 55 -10 15 -10 23 -2 28 7 4 13 16 16
27 3 15 12 20 38 21 73 3 77 4 59 14 -9 5 -39 7 -68 3 -45 -5 -51 -8 -51 -29
0 -17 -4 -22 -15 -18 -8 4 -15 15 -15 25 0 13 -7 19 -21 19 -14 0 -19 -5 -16
-14 7 -18 -24 -31 -34 -14 -7 10 -11 10 -21 0 -16 -16 -68 -16 -68 1 0 17 32
33 98 47 30 7 56 18 58 25 3 7 21 12 44 11 25 0 46 6 56 16 16 16 16 17 -7 11
-23 -5 -24 -5 -4 10 25 21 44 21 51 2 4 -8 10 -15 16 -15 11 0 6 32 -7 43 -5
5 1 5 14 2 14 -5 21 -3 17 3 -3 5 9 17 27 26 41 20 51 20 42 -1z m65 2 c10
-12 10 -15 -3 -15 -23 0 -47 11 -47 21 0 15 37 10 50 -6z m-540 -68 c0 -23
-49 -62 -61 -50 -6 6 -22 8 -38 4 -21 -6 -64 -6 -114 -2 -5 1 -6 5 -3 9 3 5
27 10 53 10 26 1 71 11 98 21 62 24 65 24 65 8z m-950 -7 c0 -5 -7 -10 -15
-10 -8 0 -15 5 -15 10 0 6 7 10 15 10 8 0 15 -4 15 -10z m345 -30 c3 -5 1 -10
-4 -10 -6 0 -11 5 -11 10 0 6 2 10 4 10 3 0 8 -4 11 -10z m283 -13 c6 0 12 -6
12 -12 0 -7 10 -17 23 -23 19 -9 20 -11 3 -11 -10 -1 -27 8 -36 19 -11 12 -21
17 -24 11 -10 -15 -36 -1 -29 15 3 9 12 13 22 8 9 -3 22 -7 29 -7z m82 -7 c0
-5 -4 -10 -10 -10 -5 0 -10 5 -10 10 0 6 5 10 10 10 6 0 10 -4 10 -10z m-589
-43 c-18 -18 -38 8 -21 28 12 15 14 15 23 0 6 -11 5 -21 -2 -28z m-101 -2 c0
-14 -4 -25 -10 -25 -5 0 -10 11 -10 25 0 14 5 25 10 25 6 0 10 -11 10 -25z
m490 15 c9 -5 19 -5 27 2 10 8 13 5 13 -15 0 -22 -4 -26 -32 -25 -43 1 -62 15
-45 33 14 17 18 17 37 5z m105 -22 c-19 -11 -30 -5 -21 11 4 6 14 7 22 4 15
-5 14 -7 -1 -15z m-180 -9 c-4 -5 -13 -9 -22 -9 -13 0 -13 3 -3 15 13 15 35
11 25 -6z m513 -7 c3 -9 -4 -9 -27 -1 -17 6 -31 15 -31 19 0 12 53 -4 58 -18z
m-593 8 c3 -5 12 -7 20 -3 11 4 13 1 9 -11 -8 -20 -50 -21 -57 -2 -9 23 15 37
28 16z m-59 -29 c-3 -5 -15 -7 -26 -4 -28 7 -25 13 6 13 14 0 23 -4 20 -9z
m-257 -42 c-32 -20 -54 2 -28 28 9 9 16 8 27 -4 13 -13 13 -16 1 -24z m536 31
c3 -5 12 -7 20 -3 9 3 15 -1 15 -11 0 -19 1 -19 -39 -5 -17 6 -31 15 -31 20 0
12 27 12 35 -1z m-385 -8 c0 -4 -18 -8 -40 -9 -22 -1 -40 2 -40 8 0 5 18 9 40
9 22 0 40 -4 40 -8z m330 -7 c0 -15 -43 -12 -48 3 -3 10 4 13 22 10 15 -2 26
-7 26 -13z m173 -7 c18 -28 1 -48 -43 -48 -48 0 -53 19 -12 49 30 22 41 22 55
-1z m87 6 c0 -8 -5 -12 -10 -9 -6 4 -8 11 -5 16 9 14 15 11 15 -7z m395 -12
c-3 -3 -11 0 -18 7 -9 10 -8 11 6 5 10 -3 15 -9 12 -12z m-745 -2 c0 -5 -4
-10 -10 -10 -5 0 -10 5 -10 10 0 6 5 10 10 10 6 0 10 -4 10 -10z m700 0 c0 -5
-4 -10 -10 -10 -5 0 -10 5 -10 10 0 6 5 10 10 10 6 0 10 -4 10 -10z m200 0 c0
-5 -7 -7 -15 -4 -8 4 -15 8 -15 10 0 2 7 4 15 4 8 0 15 -4 15 -10z m-750 -29
c0 -12 -75 -25 -90 -16 -6 3 -8 11 -5 16 8 12 95 12 95 0z m363 -26 c-3 -13
-9 -22 -14 -19 -10 6 -12 38 -3 47 13 12 21 -3 17 -28z m-498 11 c-11 -8 -24
-12 -28 -9 -11 7 12 23 32 23 11 0 9 -4 -4 -14z m1295 4 c0 -5 -4 -10 -10 -10
-5 0 -10 5 -10 10 0 6 5 10 10 10 6 0 10 -4 10 -10z m-1430 -15 c0 -8 -7 -15
-15 -15 -16 0 -20 12 -8 23 11 12 23 8 23 -8z m545 4 c4 -6 5 -12 2 -15 -7 -7
-37 7 -37 17 0 13 27 11 35 -2z m310 -9 c3 -5 1 -10 -4 -10 -6 0 -11 5 -11 10
0 6 2 10 4 10 3 0 8 -4 11 -10z m214 6 c-2 -2 -17 -6 -34 -10 -22 -5 -26 -4
-15 4 14 9 59 15 49 6z m75 -17 c18 -9 33 -9 57 0 19 7 36 8 42 2 13 -13 -5
-21 -60 -27 -41 -5 -50 -3 -61 15 -14 24 -12 25 22 10z m1052 -38 c112 -36
146 -52 141 -65 -3 -6 0 -19 5 -29 14 -27 -14 -32 -67 -12 -54 21 -164 16
-235 -10 -71 -26 -91 -29 -101 -14 -21 34 3 128 38 148 34 20 127 12 219 -18z
m-1139 -6 c-11 -7 -25 -11 -33 -8 -25 10 -15 23 19 23 30 -1 31 -2 14 -15z
m322 6 c17 -11 11 -14 -68 -41 -70 -23 -106 -21 -80 6 9 8 32 16 53 18 20 2
42 8 49 15 13 13 27 14 46 2z m-430 -15 c10 -12 8 -17 -7 -25 -21 -11 -42 2
-42 26 0 17 35 17 49 -1z m231 -15 c39 -37 38 -49 -5 -45 -22 1 -34 -2 -32 -9
1 -6 -8 -13 -21 -15 -21 -3 -22 -1 -12 17 6 12 8 21 5 21 -3 0 4 9 15 20 12
12 18 25 15 30 -12 19 5 10 35 -19z m-310 -21 c8 -5 11 -13 6 -17 -5 -4 -11
-2 -13 5 -3 6 -12 12 -21 12 -14 0 -15 -2 -3 -9 12 -8 8 -11 -15 -17 -16 -5
-35 -7 -41 -6 -7 2 -22 -2 -33 -8 -16 -9 -20 -8 -20 5 0 8 8 15 18 15 10 0 22
4 28 9 19 19 72 25 94 11z m205 -27 l0 -37 -80 -13 c-89 -15 -115 -12 -95 13
7 8 20 12 28 9 8 -3 36 -2 63 1 35 5 46 10 42 20 -3 8 0 14 7 14 7 0 10 7 6
15 -3 10 1 15 12 15 13 0 17 -9 17 -37z m365 12 c0 -14 -4 -33 -9 -43 -5 -9
-14 -29 -20 -44 -6 -16 -17 -28 -25 -28 -8 0 -36 -13 -63 -30 -26 -16 -70 -35
-98 -41 -27 -7 -84 -24 -125 -40 -95 -35 -192 -52 -246 -44 -29 4 -52 1 -77
-11 -58 -28 -67 -17 -67 80 0 96 -1 95 105 96 105 1 419 62 526 104 84 32 99
33 99 1z m-620 -75 c0 -5 -6 -10 -12 -10 -7 0 -30 -3 -50 -6 -24 -4 -38 -3
-38 4 0 9 22 15 83 20 9 1 17 -2 17 -8z m-1060 -155 c10 -12 10 -15 -4 -15 -9
0 -16 7 -16 15 0 8 2 15 4 15 2 0 9 -7 16 -15z m1497 -1 c-3 -3 -12 -4 -19 -1
-8 3 -5 6 6 6 11 1 17 -2 13 -5z m203 -90 c0 -8 -4 -14 -10 -14 -5 0 -10 9
-10 21 0 11 5 17 10 14 6 -3 10 -13 10 -21z m-520 -7 c-25 -13 -55 -21 -68
-19 -13 3 -21 7 -18 9 10 10 82 32 106 32 21 1 17 -3 -20 -22z m-1030 -47 c0
-5 -4 -10 -10 -10 -5 0 -10 5 -10 10 0 6 5 10 10 10 6 0 10 -4 10 -10z m1302
-8 c-7 -2 -12 -11 -12 -19 0 -13 -3 -13 -15 -3 -20 16 -19 28 3 33 20 4 42 -5
24 -11z m-392 -2 c0 -16 -51 -33 -63 -21 -5 5 -6 14 -3 20 9 14 66 14 66 1z
m-732 -16 c-9 -9 -21 -13 -27 -9 -16 10 -3 25 22 25 20 0 20 -1 5 -16z m662
-31 c0 -13 -41 -18 -53 -7 -3 4 1 18 10 31 16 24 17 24 30 7 7 -10 13 -24 13
-31z m-753 20 c3 -7 -3 -9 -16 -6 -12 3 -21 10 -21 15 0 13 32 6 37 -9z m1053
6 c0 -6 7 -9 15 -5 8 3 15 1 15 -4 0 -19 -18 -19 -35 0 -10 12 -13 20 -7 20 7
0 12 -5 12 -11z m-765 -12 c11 -1 26 -6 34 -11 23 -14 -7 -25 -61 -21 -55 4
-68 10 -68 32 0 12 8 14 38 9 20 -4 46 -7 57 -9z m-921 -38 c21 -22 35 -46 33
-52 -2 -6 -20 -16 -40 -20 -54 -13 -138 -107 -161 -181 -10 -31 -21 -58 -26
-61 -14 -9 -50 29 -59 63 -10 35 -5 44 83 139 21 23 46 53 54 65 35 53 64 88
71 88 5 0 25 -18 45 -41z m704 25 c15 -15 14 -16 -8 -9 -33 10 -49 25 -26 25
9 0 25 -7 34 -16z m476 -35 c-3 -5 -17 -9 -32 -9 -25 1 -26 2 -9 15 20 14 51
10 41 -6z m424 10 c-2 -6 -7 -10 -11 -10 -4 1 -15 1 -24 2 -15 0 -15 2 2 9 28
12 37 12 33 -1z m-58 -7 c0 -5 -11 -14 -25 -20 -32 -15 -38 -15 -29 -1 3 6 0
15 -7 20 -10 6 -2 9 24 9 20 0 37 -4 37 -8z m-305 -82 c3 -5 -1 -10 -10 -10
-9 0 -13 5 -10 10 3 6 8 10 10 10 2 0 7 -4 10 -10z m235 -100 c11 -7 6 -10
-20 -10 -26 0 -31 3 -20 10 8 5 17 10 20 10 3 0 12 -5 20 -10z m-1483 -15 c12
-8 29 -35 39 -60 9 -25 23 -45 31 -45 9 0 13 -6 10 -14 -3 -8 2 -25 12 -38 10
-13 33 -50 51 -83 39 -74 53 -99 61 -105 11 -10 99 -151 99 -159 0 -5 4 -11 8
-13 5 -1 22 -23 39 -48 18 -25 48 -63 67 -85 20 -22 51 -60 69 -84 51 -69 128
-150 149 -157 24 -7 71 23 64 41 -8 22 22 47 42 36 9 -5 40 -7 69 -4 64 7 66
-1 27 -80 -57 -111 -129 -187 -180 -187 -31 0 -215 196 -254 270 -24 47 -84
135 -108 160 -14 14 -30 36 -36 50 -6 14 -19 37 -29 50 -10 14 -30 43 -44 65
-15 22 -50 76 -79 120 -29 44 -71 105 -93 135 -48 65 -81 124 -81 145 0 8 -4
15 -10 15 -19 0 -10 34 17 62 31 33 32 33 60 13z m623 -35 c0 -5 -7 -10 -16
-10 -8 0 -12 5 -9 10 3 6 10 10 16 10 5 0 9 -4 9 -10z m1370 -120 c0 -5 -7
-10 -16 -10 -8 0 -12 5 -9 10 3 6 10 10 16 10 5 0 9 -4 9 -10z m-77 -130 c3
-13 0 -20 -8 -20 -18 0 -26 15 -19 34 7 20 20 13 27 -14z m62 -30 c3 -5 2 -10
-4 -10 -5 0 -13 5 -16 10 -3 6 -2 10 4 10 5 0 13 -4 16 -10z m605 -25 c0 -8
-4 -15 -10 -15 -5 0 -7 7 -4 15 4 8 8 15 10 15 2 0 4 -7 4 -15z m-630 -51 c0
-8 -4 -14 -10 -14 -12 0 -31 35 -23 44 9 8 33 -14 33 -30z m40 -224 c0 -5 -2
-10 -4 -10 -3 0 -8 5 -11 10 -3 6 -1 10 4 10 6 0 11 -4 11 -10z"/>
<path d="M1853 3889 c8 -21 13 -26 15 -14 5 21 -5 45 -17 45 -5 0 -4 -13 2
-31z"/>
<path d="M1690 3880 c0 -5 4 -10 9 -10 5 0 12 -13 16 -30 5 -21 13 -30 26 -30
18 0 17 3 -7 40 -26 38 -44 51 -44 30z"/>
<path d="M2242 3873 c-8 -15 -9 -24 -1 -28 15 -10 21 0 17 27 l-3 23 -13 -22z"/>
<path d="M2100 3850 c0 -5 6 -10 14 -10 8 0 18 5 21 10 3 6 -3 10 -14 10 -12
0 -21 -4 -21 -10z"/>
<path d="M2180 3851 c0 -6 5 -13 10 -16 6 -3 10 1 10 9 0 9 -4 16 -10 16 -5 0
-10 -4 -10 -9z"/>
<path d="M3410 2845 c0 -8 5 -15 10 -15 6 0 10 7 10 15 0 8 -4 15 -10 15 -5 0
-10 -7 -10 -15z"/>
<path d="M3354 2830 c-9 -9 -36 -16 -99 -24 -11 -1 -19 -7 -17 -12 2 -11 2
-11 72 0 60 9 90 21 90 36 0 13 -33 13 -46 0z"/>
<path d="M3466 2796 c-6 -19 -7 -19 -16 -4 -9 15 -14 15 -62 -4 -59 -22 -82
-38 -55 -38 9 0 17 -7 17 -15 0 -18 27 -20 32 -3 2 6 27 11 59 12 46 1 54 4
54 20 0 11 6 21 13 24 20 6 14 19 -12 24 -19 4 -26 0 -30 -16z"/>
<path d="M2273 5875 c-8 -21 -3 -23 36 -17 l34 5 -24 13 c-31 17 -38 17 -46
-1z"/>
<path d="M2016 5861 c-8 -12 3 -41 15 -41 5 0 9 6 9 14 0 9 9 14 24 13 14 -1
26 3 28 8 4 13 -68 19 -76 6z"/>
<path d="M1898 5835 c-5 -6 -15 -7 -143 -20 -38 -4 -74 -11 -80 -15 -5 -4 -23
-10 -38 -14 -15 -4 -26 -10 -23 -15 5 -8 22 -6 151 18 33 6 92 14 130 17 84 6
118 27 52 32 -24 1 -46 0 -49 -3z"/>
<path d="M1503 5762 c-23 -9 -45 -20 -49 -24 -4 -5 -15 -8 -25 -8 -10 0 -33
-18 -52 -40 -19 -22 -37 -40 -40 -40 -4 0 -14 14 -22 30 -22 42 -71 70 -122
70 -37 0 -49 -6 -95 -50 l-53 -51 0 -102 c1 -111 9 -163 33 -217 21 -49 27
-20 7 38 -21 62 -32 177 -16 186 6 4 11 17 11 30 0 12 14 43 31 69 l30 46 61
-3 c53 -3 64 -7 81 -30 11 -15 22 -47 25 -71 2 -25 8 -42 12 -40 5 3 22 29 39
59 43 77 73 101 157 125 41 12 72 26 69 31 -9 14 -34 11 -82 -8z"/>
<path d="M2575 5609 c-16 -6 -88 -12 -159 -15 -70 -2 -137 -9 -147 -14 -10 -6
-38 -10 -62 -10 -54 0 -148 -17 -160 -29 -9 -9 90 -121 108 -121 6 0 18 22 28
49 14 41 22 51 48 56 39 9 83 -10 98 -41 16 -36 14 -49 -15 -84 -20 -23 -24
-34 -15 -43 6 -6 11 -21 11 -33 0 -19 -8 -24 -50 -33 -28 -6 -60 -11 -70 -11
-11 0 -43 -9 -72 -20 -29 -11 -54 -20 -55 -20 -2 0 -11 17 -22 39 -29 56 -24
56 -246 16 -142 -25 -195 -28 -195 -12 0 8 11 18 25 21 16 4 25 13 25 26 0 47
67 134 99 128 9 -2 20 -21 27 -43 6 -23 18 -41 27 -43 18 -4 22 4 31 60 8 43
39 67 111 84 49 11 48 11 -41 8 -55 -1 -107 -9 -133 -20 -36 -14 -46 -15 -67
-4 -22 12 -26 11 -40 -8 -8 -12 -21 -22 -27 -22 -25 0 -116 -100 -126 -137
-38 -151 -45 -198 -47 -298 -1 -139 13 -194 79 -309 76 -133 123 -175 331
-287 82 -44 172 -62 313 -63 122 -1 156 4 140 21 -4 4 -49 7 -100 8 -158 2
-263 29 -426 108 -53 26 -187 154 -211 203 -14 27 -33 61 -43 76 -36 56 -69
299 -44 325 3 3 13 -10 22 -29 10 -18 31 -48 48 -65 38 -40 80 -43 213 -13 49
12 129 29 179 40 102 21 115 32 115 101 0 25 6 51 13 57 28 23 131 44 184 37
49 -6 54 -9 78 -52 l27 -45 62 5 c78 6 329 52 381 69 51 17 68 48 60 113 l-6
50 21 -35 c11 -19 25 -42 30 -50 6 -8 15 -26 21 -40 7 -15 13 -20 16 -12 3 7
-7 32 -21 56 -14 25 -26 53 -26 63 0 10 -6 27 -14 38 -7 11 -16 33 -20 49 -8
32 -103 131 -138 145 -39 14 -141 20 -173 10z m28 -45 c18 -10 46 -27 62 -40
18 -14 39 -21 50 -18 22 5 64 -20 53 -31 -4 -4 -73 -15 -155 -25 -81 -10 -163
-24 -181 -30 -42 -16 -47 -10 -28 29 9 17 17 50 19 73 2 42 3 43 42 49 72 11
106 9 138 -7z m173 -158 c12 -8 29 -36 39 -62 l18 -47 -24 -18 c-32 -25 -42
-24 -28 2 18 34 3 86 -31 106 -16 9 -27 20 -24 25 8 12 27 10 50 -6z m-146
-25 c0 -6 -4 -13 -10 -16 -5 -3 -10 -21 -10 -39 0 -35 15 -53 64 -78 28 -14
28 -16 10 -25 -30 -16 -112 -32 -190 -38 -86 -6 -92 -2 -105 89 -5 36 -10 71
-11 78 -2 9 24 16 82 24 110 15 170 16 170 5z m-632 -164 c27 -71 31 -108 12
-117 -20 -11 -211 -52 -216 -47 -3 2 3 20 11 41 14 32 14 40 1 64 -18 35 -33
47 -69 56 -29 7 -74 -11 -96 -38 -18 -22 -6 -79 25 -116 28 -32 18 -38 -28
-17 -36 16 -77 78 -80 122 -1 19 1 37 4 41 11 11 86 24 225 39 76 9 139 18
142 20 2 3 15 5 27 5 18 0 26 -10 42 -53z"/>
<path d="M2010 5529 c0 -5 5 -7 10 -4 6 3 10 8 10 11 0 2 -4 4 -10 4 -5 0 -10
-5 -10 -11z"/>
<path d="M2965 5123 c3 -43 8 -97 10 -119 10 -94 -27 -215 -91 -299 -12 -17
-29 -41 -36 -55 -21 -42 -87 -94 -180 -145 -49 -26 -88 -49 -88 -51 0 -11 63
13 145 55 102 52 190 130 200 176 3 17 10 44 16 60 6 17 12 38 14 48 2 9 11
24 19 33 9 8 16 18 16 20 0 3 5 48 11 100 8 72 7 99 -2 110 -6 7 -14 43 -17
79 -2 36 -9 65 -13 65 -5 0 -6 -35 -4 -77z"/>
<path d="M1422 5135 c-14 -31 -16 -63 -3 -49 9 10 25 74 18 74 -2 0 -9 -11
-15 -25z"/>
<path d="M2534 5081 c-31 -4 -86 -24 -145 -54 l-94 -47 -105 10 c-307 28 -390
0 -390 -132 0 -72 39 -143 97 -173 20 -11 58 -35 83 -54 55 -42 131 -60 255
-60 189 -1 368 36 455 93 66 44 129 117 140 166 6 25 14 54 16 66 7 27 -56
112 -110 149 -50 34 -115 45 -202 36z m-289 -343 c47 -12 137 -84 133 -106 -4
-23 -47 -31 -177 -33 -82 -1 -124 2 -141 11 l-25 14 25 6 c24 6 24 6 -7 13
-45 9 -163 64 -163 75 0 19 208 43 285 34 17 -2 48 -9 70 -14z"/>
<path d="M2462 4420 c-18 -4 -36 -10 -39 -14 -12 -11 42 -5 72 9 33 15 18 17
-33 5z"/>
<path d="M2363 4393 c9 -2 25 -2 35 0 9 3 1 5 -18 5 -19 0 -27 -2 -17 -5z"/>
<path d="M3441 3740 c-16 -9 -6 -30 15 -30 15 0 20 25 6 34 -4 2 -14 1 -21 -4z"/>
<path d="M3446 3641 c-3 -5 1 -12 10 -15 20 -8 29 -1 19 13 -8 13 -22 14 -29
2z"/>
<path d="M4347 1563 c-15 -14 -6 -24 16 -18 35 11 44 25 16 25 -14 0 -29 -3
-32 -7z"/>
<path d="M4320 1510 c0 -11 5 -20 10 -20 6 0 10 9 10 20 0 11 -4 20 -10 20 -5
0 -10 -9 -10 -20z"/>
<path d="M4280 1395 c0 -19 41 -37 55 -23 7 6 3 14 -9 24 -26 18 -46 18 -46
-1z"/>
<path d="M4262 1251 c-10 -6 -4 -12 20 -24 37 -18 59 -8 38 18 -14 16 -38 19
-58 6z"/>
<path d="M4150 1183 c0 -15 32 -39 69 -52 40 -13 38 -14 43 19 3 22 -1 25 -27
26 -16 1 -42 5 -57 9 -16 4 -28 3 -28 -2z"/>
<path d="M4195 1030 c-3 -5 -1 -10 4 -10 6 0 11 5 11 10 0 6 -2 10 -4 10 -3 0
-8 -4 -11 -10z"/>
<path d="M4120 978 c0 -7 -3 -22 -6 -34 -7 -25 19 -54 48 -54 18 0 19 2 7 17
-11 13 -11 17 -1 20 19 7 14 41 -7 53 -26 13 -41 13 -41 -2z"/>
<path d="M4017 893 c-4 -3 -7 -12 -7 -20 0 -16 46 -18 56 -2 11 19 -33 39 -49
22z"/>
<path d="M3845 770 c-4 -7 -3 -16 3 -22 14 -14 45 -2 40 15 -6 16 -34 21 -43
7z"/>
</g>
</svg>
